<svg xmlns="http://www.w3.org/2000/svg" xmlns:xlink="http://www.w3.org/1999/xlink" width="1366" zoomAndPan="magnify" viewBox="0 0 1024.5 576" height="768" preserveAspectRatio="xMidYMid meet" version="1.0"><defs><g/></defs><path fill="#ffde59" d="M 47.0625 87.488281 L 47.0625 70.429688 C 47.0625 70.125 47.164062 69.875 47.363281 69.671875 L 51.125 65.910156 C 51.328125 65.707031 51.582031 65.605469 51.886719 65.605469 L 64.042969 65.605469 C 64.34375 65.605469 64.597656 65.707031 64.800781 65.910156 L 68.488281 69.59375 C 68.6875 69.796875 68.789062 70.050781 68.789062 70.355469 L 68.789062 72.9375 C 68.789062 73.21875 68.683594 73.464844 68.46875 73.679688 C 68.253906 73.894531 68.003906 74 67.726562 74 L 64.648438 74 C 64.371094 74 64.125 73.894531 63.90625 73.679688 C 63.691406 73.464844 63.585938 73.21875 63.585938 72.9375 L 63.585938 72.253906 C 63.585938 71.949219 63.484375 71.699219 63.28125 71.496094 L 62.140625 70.355469 C 61.914062 70.125 61.660156 70.011719 61.382812 70.011719 L 54.621094 70.011719 C 54.339844 70.011719 54.089844 70.125 53.859375 70.355469 L 52.570312 71.644531 C 52.339844 71.875 52.226562 72.125 52.226562 72.40625 L 52.226562 85.476562 C 52.226562 85.777344 52.339844 86.03125 52.570312 86.234375 L 53.859375 87.5625 C 54.113281 87.765625 54.367188 87.867188 54.621094 87.867188 L 61.382812 87.867188 C 61.636719 87.867188 61.886719 87.765625 62.140625 87.5625 L 63.28125 86.386719 C 63.484375 86.207031 63.585938 85.957031 63.585938 85.625 L 63.585938 84.980469 C 63.585938 84.675781 63.691406 84.421875 63.90625 84.21875 C 64.125 84.019531 64.371094 83.917969 64.648438 83.917969 L 67.726562 83.917969 C 68.003906 83.917969 68.253906 84.019531 68.46875 84.21875 C 68.683594 84.421875 68.789062 84.675781 68.789062 84.980469 L 68.789062 87.5625 C 68.789062 87.84375 68.6875 88.082031 68.488281 88.285156 L 64.800781 91.96875 C 64.625 92.199219 64.371094 92.3125 64.042969 92.3125 L 51.886719 92.3125 C 51.582031 92.3125 51.328125 92.199219 51.125 91.96875 L 47.363281 88.210938 C 47.164062 88.007812 47.0625 87.765625 47.0625 87.488281 Z M 47.0625 87.488281 " fill-opacity="1" fill-rule="nonzero"/><path fill="#000000" d="M 46.003906 86.421875 L 46.003906 69.90625 C 46.003906 69.613281 46.105469 69.367188 46.300781 69.171875 L 49.941406 65.53125 C 50.136719 65.335938 50.382812 65.234375 50.675781 65.234375 L 62.449219 65.234375 C 62.742188 65.234375 62.984375 65.335938 63.183594 65.53125 L 66.75 69.097656 C 66.945312 69.292969 67.042969 69.539062 67.042969 69.832031 L 67.042969 72.335938 C 67.042969 72.605469 66.9375 72.84375 66.730469 73.050781 C 66.523438 73.261719 66.285156 73.363281 66.011719 73.363281 L 63.035156 73.363281 C 62.765625 73.363281 62.527344 73.261719 62.316406 73.050781 C 62.109375 72.84375 62.003906 72.605469 62.003906 72.335938 L 62.003906 71.671875 C 62.003906 71.378906 61.90625 71.132812 61.710938 70.9375 L 60.605469 69.832031 C 60.386719 69.613281 60.140625 69.503906 59.871094 69.503906 L 53.324219 69.503906 C 53.054688 69.503906 52.808594 69.613281 52.589844 69.832031 L 51.339844 71.082031 C 51.117188 71.304688 51.007812 71.550781 51.007812 71.820312 L 51.007812 84.472656 C 51.007812 84.765625 51.117188 85.011719 51.339844 85.207031 L 52.589844 86.496094 C 52.835938 86.691406 53.078125 86.789062 53.324219 86.789062 L 59.871094 86.789062 C 60.117188 86.789062 60.359375 86.691406 60.605469 86.496094 L 61.710938 85.355469 C 61.90625 85.183594 62.003906 84.9375 62.003906 84.621094 L 62.003906 83.992188 C 62.003906 83.699219 62.109375 83.453125 62.316406 83.257812 C 62.527344 83.0625 62.765625 82.964844 63.035156 82.964844 L 66.011719 82.964844 C 66.285156 82.964844 66.523438 83.0625 66.730469 83.257812 C 66.9375 83.453125 67.042969 83.699219 67.042969 83.992188 L 67.042969 86.496094 C 67.042969 86.765625 66.945312 87 66.75 87.195312 L 63.183594 90.761719 C 63.011719 90.984375 62.765625 91.09375 62.449219 91.09375 L 50.675781 91.09375 C 50.382812 91.09375 50.136719 90.984375 49.941406 90.761719 L 46.300781 87.121094 C 46.105469 86.925781 46.003906 86.691406 46.003906 86.421875 Z M 46.003906 86.421875 " fill-opacity="1" fill-rule="nonzero"/><path fill="#ffffff" d="M 45.972656 83.132812 L 45.972656 66.898438 C 45.972656 66.609375 46.066406 66.371094 46.261719 66.175781 L 49.839844 62.597656 C 50.035156 62.402344 50.273438 62.308594 50.5625 62.308594 L 62.132812 62.308594 C 62.421875 62.308594 62.664062 62.402344 62.855469 62.597656 L 66.363281 66.101562 C 66.554688 66.296875 66.652344 66.535156 66.652344 66.824219 L 66.652344 69.285156 C 66.652344 69.550781 66.550781 69.785156 66.34375 69.992188 C 66.140625 70.195312 65.902344 70.296875 65.636719 70.296875 L 62.710938 70.296875 C 62.445312 70.296875 62.210938 70.195312 62.003906 69.992188 C 61.800781 69.785156 61.699219 69.550781 61.699219 69.285156 L 61.699219 68.636719 C 61.699219 68.347656 61.601562 68.105469 61.410156 67.910156 L 60.324219 66.824219 C 60.109375 66.609375 59.867188 66.5 59.601562 66.5 L 53.164062 66.5 C 52.902344 66.5 52.660156 66.609375 52.445312 66.824219 L 51.214844 68.058594 C 50.996094 68.273438 50.886719 68.515625 50.886719 68.78125 L 50.886719 81.214844 C 50.886719 81.503906 50.996094 81.746094 51.214844 81.9375 L 52.445312 83.203125 C 52.683594 83.398438 52.925781 83.496094 53.164062 83.496094 L 59.601562 83.496094 C 59.84375 83.496094 60.082031 83.398438 60.324219 83.203125 L 61.410156 82.082031 C 61.601562 81.914062 61.699219 81.671875 61.699219 81.359375 L 61.699219 80.746094 C 61.699219 80.457031 61.800781 80.214844 62.003906 80.023438 C 62.210938 79.832031 62.445312 79.734375 62.710938 79.734375 L 65.636719 79.734375 C 65.902344 79.734375 66.140625 79.832031 66.34375 80.023438 C 66.550781 80.214844 66.652344 80.457031 66.652344 80.746094 L 66.652344 83.203125 C 66.652344 83.46875 66.554688 83.699219 66.363281 83.890625 L 62.855469 87.398438 C 62.6875 87.613281 62.445312 87.722656 62.132812 87.722656 L 50.5625 87.722656 C 50.273438 87.722656 50.035156 87.613281 49.839844 87.398438 L 46.261719 83.820312 C 46.066406 83.625 45.972656 83.398438 45.972656 83.132812 Z M 45.972656 83.132812 " fill-opacity="1" fill-rule="nonzero"/><g fill="#ffffff" fill-opacity="1"><g transform="translate(92.252551, 83.155497)"><g><path d="M 2.488281 -7.027344 L 2.488281 -7.789062 C 2.488281 -12.007812 3.628906 -13.792969 6.097656 -13.792969 L 6.230469 -13.792969 C 8.453125 -13.792969 9.382812 -12.480469 9.382812 -9.421875 L 10.789062 -9.421875 L 10.789062 -9.953125 C 10.789062 -13.296875 9.269531 -15.027344 6.117188 -15.027344 C 2.714844 -15.027344 1.082031 -12.917969 1.082031 -7.789062 L 1.082031 -7.027344 C 1.082031 -1.898438 2.714844 0.207031 6.117188 0.207031 C 9.269531 0.207031 10.789062 -1.519531 10.789062 -4.636719 L 10.789062 -4.824219 L 9.382812 -4.824219 C 9.382812 -2.375 8.453125 -1.027344 6.230469 -1.027344 L 6.097656 -1.027344 C 3.609375 -1.027344 2.488281 -2.8125 2.488281 -7.027344 Z M 2.488281 -7.027344 "/></g></g></g><g fill="#ffffff" fill-opacity="1"><g transform="translate(103.99215, 83.155497)"><g><path d="M 6.15625 0.207031 C 9.554688 0.207031 11.246094 -1.898438 11.246094 -7.027344 L 11.246094 -7.789062 C 11.246094 -12.917969 9.554688 -15.027344 6.15625 -15.027344 C 2.773438 -15.027344 1.082031 -12.917969 1.082031 -7.789062 L 1.082031 -7.027344 C 1.082031 -1.898438 2.773438 0.207031 6.15625 0.207031 Z M 6.097656 -1.027344 C 3.609375 -1.027344 2.488281 -2.8125 2.488281 -7.027344 L 2.488281 -7.789062 C 2.488281 -12.007812 3.609375 -13.792969 6.097656 -13.792969 L 6.230469 -13.792969 C 8.71875 -13.792969 9.839844 -12.007812 9.839844 -7.789062 L 9.839844 -7.027344 C 9.839844 -2.8125 8.71875 -1.027344 6.230469 -1.027344 Z M 6.097656 -1.027344 "/></g></g></g><g fill="#ffffff" fill-opacity="1"><g transform="translate(116.320629, 83.155497)"><g><path d="M 11.054688 -7.027344 L 11.054688 -7.789062 C 11.054688 -12.917969 8.929688 -14.816406 5.320312 -14.816406 L 1.40625 -14.816406 L 1.40625 0 L 5.320312 0 C 8.929688 0 11.054688 -1.898438 11.054688 -7.027344 Z M 2.773438 -1.234375 L 2.773438 -13.582031 L 5.207031 -13.582031 C 8.054688 -13.582031 9.652344 -12.007812 9.652344 -7.789062 L 9.652344 -7.027344 C 9.652344 -2.8125 8.054688 -1.234375 5.207031 -1.234375 Z M 2.773438 -1.234375 "/></g></g></g><g fill="#ffffff" fill-opacity="1"><g transform="translate(128.459147, 83.155497)"><g><path d="M 1.40625 -14.816406 L 1.40625 0 L 9.667969 0 L 9.667969 -1.234375 L 2.773438 -1.234375 L 2.773438 -6.953125 L 8.71875 -6.953125 L 8.71875 -8.167969 L 2.773438 -8.167969 L 2.773438 -13.582031 L 9.667969 -13.582031 L 9.667969 -14.816406 Z M 1.40625 -14.816406 "/></g></g></g><g fill="#ffffff" fill-opacity="1"><g transform="translate(138.88802, 83.155497)"><g><path d="M 6.476562 0.207031 C 8.832031 0.207031 10.203125 -0.664062 11 -1.5 L 11 -7.296875 L 7.085938 -7.296875 L 7.085938 -6.078125 L 9.632812 -6.078125 L 9.632812 -2.164062 C 9.101562 -1.597656 8.074219 -1.027344 6.574219 -1.027344 L 6.441406 -1.027344 C 3.722656 -1.027344 2.507812 -2.8125 2.507812 -7.027344 L 2.507812 -7.789062 C 2.507812 -12.007812 3.78125 -13.792969 6.289062 -13.792969 L 6.402344 -13.792969 C 8.683594 -13.792969 9.613281 -12.480469 9.613281 -9.421875 L 11 -9.421875 L 11 -9.953125 C 11 -13.296875 9.460938 -15.027344 6.289062 -15.027344 C 2.90625 -15.027344 1.082031 -12.917969 1.082031 -7.789062 L 1.082031 -7.027344 C 1.082031 -1.898438 2.90625 0.207031 6.476562 0.207031 Z M 6.476562 0.207031 "/></g></g></g><g fill="#ffffff" fill-opacity="1"><g transform="translate(151.197501, 83.155497)"><g><path d="M 1.40625 -14.816406 L 1.40625 0 L 9.667969 0 L 9.667969 -1.234375 L 2.773438 -1.234375 L 2.773438 -6.953125 L 8.71875 -6.953125 L 8.71875 -8.167969 L 2.773438 -8.167969 L 2.773438 -13.582031 L 9.667969 -13.582031 L 9.667969 -14.816406 Z M 1.40625 -14.816406 "/></g></g></g><g fill="#ffffff" fill-opacity="1"><g transform="translate(161.626375, 83.155497)"><g><path d="M 11.113281 -14.816406 L 9.820312 -14.816406 L 9.820312 -5.757812 L 9.878906 -2.316406 L 2.886719 -14.816406 L 1.40625 -14.816406 L 1.40625 0 L 2.699219 0 L 2.699219 -9.0625 L 2.621094 -12.5 L 9.632812 0 L 11.113281 0 Z M 11.113281 -14.816406 "/></g></g></g><g fill="#ffffff" fill-opacity="1"><g transform="translate(174.144814, 83.155497)"><g><path d="M 2.867188 -14.816406 L 1.5 -14.816406 L 1.5 0 L 2.867188 0 Z M 2.867188 -14.816406 "/></g></g></g><g fill="#ffffff" fill-opacity="1"><g transform="translate(178.513916, 83.155497)"><g><path d="M 6.058594 0.207031 C 9.214844 0.207031 10.828125 -1.027344 10.828125 -4.597656 L 10.828125 -14.816406 L 9.460938 -14.816406 L 9.460938 -4.691406 C 9.460938 -1.878906 8.339844 -1.027344 6.058594 -1.027344 C 3.78125 -1.027344 2.679688 -1.878906 2.679688 -4.691406 L 2.679688 -14.816406 L 1.3125 -14.816406 L 1.3125 -4.597656 C 1.3125 -1.027344 2.90625 0.207031 6.058594 0.207031 Z M 6.058594 0.207031 "/></g></g></g><g fill="#ffffff" fill-opacity="1"><g transform="translate(190.652434, 83.155497)"><g><path d="M 5.472656 -7.027344 C 8.054688 -6.667969 9.136719 -5.792969 9.136719 -4.046875 L 9.136719 -3.875 C 9.136719 -2.070312 7.789062 -1.027344 5.773438 -1.027344 L 5.640625 -1.027344 C 3.648438 -1.027344 2.242188 -2.222656 2.242188 -4.824219 L 0.875 -4.824219 L 0.875 -4.636719 C 0.875 -1.578125 2.566406 0.207031 5.699219 0.207031 C 8.664062 0.207031 10.542969 -1.347656 10.542969 -3.96875 L 10.542969 -4.160156 C 10.542969 -6.441406 9.214844 -7.75 5.984375 -8.1875 C 3.265625 -8.566406 2.449219 -9.5 2.449219 -11.074219 L 2.449219 -11.226562 C 2.449219 -12.824219 3.820312 -13.792969 5.625 -13.792969 L 5.757812 -13.792969 C 8.015625 -13.792969 9.003906 -12.613281 9.003906 -9.800781 L 10.371094 -9.800781 L 10.371094 -10.257812 C 10.371094 -13.316406 9.003906 -15.027344 5.699219 -15.027344 C 2.886719 -15.027344 1.042969 -13.527344 1.042969 -11.054688 L 1.042969 -10.867188 C 1.042969 -8.910156 2.242188 -7.464844 5.472656 -7.027344 Z M 5.472656 -7.027344 "/></g></g></g><g fill="#ffffff" fill-opacity="1"><g transform="translate(321.228441, 166.534711)"><g><path d="M 32.109375 -24.265625 C 37.890625 -22.785156 40.78125 -19.175781 40.78125 -13.4375 C 40.78125 -9.570312 39.570312 -6.53125 37.15625 -4.3125 C 34.738281 -2.09375 31.835938 -0.742188 28.453125 -0.265625 C 26.929688 -0.0859375 24.84375 0 22.1875 0 L 5.8125 0 L 5.8125 -45.015625 L 21.921875 -45.015625 C 24.316406 -45.015625 26.253906 -44.929688 27.734375 -44.765625 C 31.335938 -44.328125 34.128906 -43.109375 36.109375 -41.109375 C 38.085938 -39.109375 39.078125 -36.582031 39.078125 -33.53125 C 39.078125 -28.96875 36.753906 -25.878906 32.109375 -24.265625 Z M 14.8125 -37.96875 L 14.8125 -26.5625 L 21.59375 -26.5625 C 22.6875 -26.5625 23.753906 -26.625 24.796875 -26.75 C 28.054688 -27.269531 29.6875 -29.140625 29.6875 -32.359375 C 29.6875 -35.535156 27.988281 -37.34375 24.59375 -37.78125 C 23.550781 -37.90625 22.46875 -37.96875 21.34375 -37.96875 Z M 25.640625 -7.171875 C 27.296875 -7.304688 28.65625 -7.914062 29.71875 -9 C 30.78125 -10.09375 31.3125 -11.550781 31.3125 -13.375 C 31.3125 -17.15625 29.378906 -19.242188 25.515625 -19.640625 C 24.421875 -19.773438 23.351562 -19.84375 22.3125 -19.84375 L 14.8125 -19.84375 L 14.8125 -7.109375 L 22.640625 -7.109375 C 24.078125 -7.109375 25.078125 -7.128906 25.640625 -7.171875 Z M 25.640625 -7.171875 "/></g></g></g><g fill="#ffffff" fill-opacity="1"><g transform="translate(364.097638, 166.534711)"><g><path d="M 35.625 -18.078125 C 35.625 -16.816406 35.582031 -15.789062 35.5 -15 L 10.828125 -15 C 11.347656 -8.613281 14.023438 -5.421875 18.859375 -5.421875 C 20.816406 -5.421875 22.4375 -5.941406 23.71875 -6.984375 C 25 -8.023438 25.789062 -9.457031 26.09375 -11.28125 L 35.109375 -11.28125 C 34.234375 -7.320312 32.328125 -4.300781 29.390625 -2.21875 C 26.453125 -0.132812 22.875 0.90625 18.65625 0.90625 C 13.65625 0.90625 9.585938 -0.644531 6.453125 -3.75 C 3.328125 -6.863281 1.765625 -11.351562 1.765625 -17.21875 C 1.765625 -22.613281 3.382812 -27.03125 6.625 -30.46875 C 9.863281 -33.90625 14.113281 -35.625 19.375 -35.625 C 24.46875 -35.625 28.445312 -33.945312 31.3125 -30.59375 C 34.1875 -27.25 35.625 -23.078125 35.625 -18.078125 Z M 18.984375 -29.296875 C 14.503906 -29.296875 11.875 -26.488281 11.09375 -20.875 L 26.359375 -20.875 C 25.753906 -26.488281 23.296875 -29.296875 18.984375 -29.296875 Z M 18.984375 -29.296875 "/></g></g></g><g fill="#ffffff" fill-opacity="1"><g transform="translate(401.812084, 166.534711)"><g><path d="M 12.859375 -47.953125 L 12.859375 -11.359375 C 12.859375 -9.828125 12.878906 -8.757812 12.921875 -8.15625 C 13.003906 -7.238281 13.328125 -6.628906 13.890625 -6.328125 C 14.460938 -6.023438 15.488281 -5.914062 16.96875 -6 L 16.96875 0.203125 C 15.394531 0.367188 13.546875 0.453125 11.421875 0.453125 C 6.628906 0.453125 4.148438 -1.585938 3.984375 -5.671875 C 3.890625 -6.722656 3.84375 -8.550781 3.84375 -11.15625 L 3.84375 -47.953125 Z M 12.859375 -47.953125 "/></g></g></g><g fill="#ffffff" fill-opacity="1"><g transform="translate(420.016805, 166.534711)"><g><path d="M 24.265625 0 L 23.625 -5.09375 L 21.921875 -1.375 C 19.660156 0.144531 16.789062 0.90625 13.3125 0.90625 C 10.132812 0.90625 7.476562 0.015625 5.34375 -1.765625 C 3.21875 -3.546875 2.15625 -6.023438 2.15625 -9.203125 C 2.15625 -13.023438 3.773438 -15.96875 7.015625 -18.03125 C 10.253906 -20.101562 15.003906 -21.140625 21.265625 -21.140625 L 23.484375 -21.140625 L 23.484375 -21.859375 C 23.484375 -23.253906 23.441406 -24.34375 23.359375 -25.125 C 23.054688 -27.90625 21.273438 -29.296875 18.015625 -29.296875 C 14.398438 -29.296875 12.460938 -27.335938 12.203125 -23.421875 L 3.453125 -23.359375 C 3.585938 -27.179688 5.035156 -30.179688 7.796875 -32.359375 C 10.554688 -34.535156 14.066406 -35.625 18.328125 -35.625 C 26.984375 -35.625 31.617188 -32.207031 32.234375 -25.375 C 32.359375 -23.726562 32.421875 -21.945312 32.421875 -20.03125 L 32.421875 -8.8125 C 32.421875 -6.15625 32.640625 -3.21875 33.078125 0 Z M 16.765625 -5.421875 C 18.679688 -5.421875 20.28125 -6.070312 21.5625 -7.375 C 22.84375 -8.675781 23.484375 -10.476562 23.484375 -12.78125 L 23.484375 -15.59375 C 15.484375 -16.15625 11.484375 -14.265625 11.484375 -9.921875 C 11.484375 -6.921875 13.242188 -5.421875 16.765625 -5.421875 Z M 16.765625 -5.421875 "/></g></g></g><g fill="#ffffff" fill-opacity="1"><g transform="translate(456.687252, 166.534711)"><g><path d="M 8.421875 -47.625 C 11.679688 -47.625 13.3125 -46.035156 13.3125 -42.859375 C 13.3125 -39.691406 11.679688 -38.109375 8.421875 -38.109375 C 5.109375 -38.109375 3.453125 -39.691406 3.453125 -42.859375 C 3.453125 -46.035156 5.109375 -47.625 8.421875 -47.625 Z M 12.859375 -34.71875 L 12.859375 0.78125 C 12.859375 2 12.8125 3.390625 12.71875 4.953125 C 12.5 7.828125 11.476562 10.003906 9.65625 11.484375 C 7.832031 12.960938 5.003906 13.703125 1.171875 13.703125 C -0.046875 13.703125 -1.15625 13.632812 -2.15625 13.5 L -2.15625 7.109375 C -0.195312 7.285156 1.238281 7.132812 2.15625 6.65625 C 3.070312 6.175781 3.613281 5.265625 3.78125 3.921875 C 3.875 2.703125 3.921875 1.695312 3.921875 0.90625 L 3.921875 -34.71875 Z M 12.859375 -34.71875 "/></g></g></g><g fill="#ffffff" fill-opacity="1"><g transform="translate(473.652235, 166.534711)"><g><path d="M 24.265625 0 L 23.625 -5.09375 L 21.921875 -1.375 C 19.660156 0.144531 16.789062 0.90625 13.3125 0.90625 C 10.132812 0.90625 7.476562 0.015625 5.34375 -1.765625 C 3.21875 -3.546875 2.15625 -6.023438 2.15625 -9.203125 C 2.15625 -13.023438 3.773438 -15.96875 7.015625 -18.03125 C 10.253906 -20.101562 15.003906 -21.140625 21.265625 -21.140625 L 23.484375 -21.140625 L 23.484375 -21.859375 C 23.484375 -23.253906 23.441406 -24.34375 23.359375 -25.125 C 23.054688 -27.90625 21.273438 -29.296875 18.015625 -29.296875 C 14.398438 -29.296875 12.460938 -27.335938 12.203125 -23.421875 L 3.453125 -23.359375 C 3.585938 -27.179688 5.035156 -30.179688 7.796875 -32.359375 C 10.554688 -34.535156 14.066406 -35.625 18.328125 -35.625 C 26.984375 -35.625 31.617188 -32.207031 32.234375 -25.375 C 32.359375 -23.726562 32.421875 -21.945312 32.421875 -20.03125 L 32.421875 -8.8125 C 32.421875 -6.15625 32.640625 -3.21875 33.078125 0 Z M 16.765625 -5.421875 C 18.679688 -5.421875 20.28125 -6.070312 21.5625 -7.375 C 22.84375 -8.675781 23.484375 -10.476562 23.484375 -12.78125 L 23.484375 -15.59375 C 15.484375 -16.15625 11.484375 -14.265625 11.484375 -9.921875 C 11.484375 -6.921875 13.242188 -5.421875 16.765625 -5.421875 Z M 16.765625 -5.421875 "/></g></g></g><g fill="#ffffff" fill-opacity="1"><g transform="translate(510.322683, 166.534711)"><g><path d="M 21.796875 -35.5625 C 22.796875 -35.5625 23.644531 -35.472656 24.34375 -35.296875 L 24.34375 -28.0625 C 20.507812 -28.320312 17.675781 -27.503906 15.84375 -25.609375 C 14.019531 -23.710938 13.109375 -20.484375 13.109375 -15.921875 L 13.109375 0 L 4.109375 0 L 4.109375 -34.71875 L 13.109375 -34.71875 L 13.109375 -28.390625 L 15.859375 -33.21875 C 17.554688 -34.78125 19.535156 -35.5625 21.796875 -35.5625 Z M 21.796875 -35.5625 "/></g></g></g><g fill="#ffffff" fill-opacity="1"><g transform="translate(535.117667, 166.534711)"><g/></g></g><g fill="#ffffff" fill-opacity="1"><g transform="translate(547.776158, 166.534711)"><g><path d="M 41.046875 -37.96875 L 25.78125 -37.96875 L 25.78125 0 L 16.765625 0 L 16.765625 -37.96875 L 1.5 -37.96875 L 1.5 -45.015625 L 41.046875 -45.015625 Z M 41.046875 -37.96875 "/></g></g></g><g fill="#ffffff" fill-opacity="1"><g transform="translate(588.42685, 166.534711)"><g><path d="M 35.625 -18.078125 C 35.625 -16.816406 35.582031 -15.789062 35.5 -15 L 10.828125 -15 C 11.347656 -8.613281 14.023438 -5.421875 18.859375 -5.421875 C 20.816406 -5.421875 22.4375 -5.941406 23.71875 -6.984375 C 25 -8.023438 25.789062 -9.457031 26.09375 -11.28125 L 35.109375 -11.28125 C 34.234375 -7.320312 32.328125 -4.300781 29.390625 -2.21875 C 26.453125 -0.132812 22.875 0.90625 18.65625 0.90625 C 13.65625 0.90625 9.585938 -0.644531 6.453125 -3.75 C 3.328125 -6.863281 1.765625 -11.351562 1.765625 -17.21875 C 1.765625 -22.613281 3.382812 -27.03125 6.625 -30.46875 C 9.863281 -33.90625 14.113281 -35.625 19.375 -35.625 C 24.46875 -35.625 28.445312 -33.945312 31.3125 -30.59375 C 34.1875 -27.25 35.625 -23.078125 35.625 -18.078125 Z M 18.984375 -29.296875 C 14.503906 -29.296875 11.875 -26.488281 11.09375 -20.875 L 26.359375 -20.875 C 25.753906 -26.488281 23.296875 -29.296875 18.984375 -29.296875 Z M 18.984375 -29.296875 "/></g></g></g><g fill="#ffffff" fill-opacity="1"><g transform="translate(626.141308, 166.534711)"><g><path d="M 19.125 -35.625 C 23.6875 -35.625 27.378906 -34.375 30.203125 -31.875 C 33.035156 -29.375 34.625 -26.144531 34.96875 -22.1875 L 26.09375 -22.1875 C 25.3125 -26.925781 22.921875 -29.296875 18.921875 -29.296875 C 16.523438 -29.296875 14.617188 -28.316406 13.203125 -26.359375 C 11.796875 -24.398438 11.09375 -21.507812 11.09375 -17.6875 C 11.09375 -13.550781 11.785156 -10.472656 13.171875 -8.453125 C 14.566406 -6.429688 16.460938 -5.421875 18.859375 -5.421875 C 20.640625 -5.421875 22.148438 -5.984375 23.390625 -7.109375 C 24.628906 -8.242188 25.46875 -9.875 25.90625 -12 L 34.90625 -12 C 34.164062 -7.820312 32.328125 -4.625 29.390625 -2.40625 C 26.453125 -0.195312 22.765625 0.90625 18.328125 0.90625 C 13.421875 0.90625 9.429688 -0.644531 6.359375 -3.75 C 3.296875 -6.863281 1.765625 -11.3125 1.765625 -17.09375 C 1.765625 -22.832031 3.414062 -27.351562 6.71875 -30.65625 C 10.03125 -33.96875 14.164062 -35.625 19.125 -35.625 Z M 19.125 -35.625 "/></g></g></g><g fill="#ffffff" fill-opacity="1"><g transform="translate(662.746513, 166.534711)"><g><path d="M 36.46875 -25.90625 C 36.644531 -24.34375 36.734375 -22.234375 36.734375 -19.578125 L 36.734375 0 L 27.734375 0 L 27.734375 -18.328125 C 27.734375 -20.378906 27.6875 -21.988281 27.59375 -23.15625 C 27.289062 -27.25 25.070312 -29.296875 20.9375 -29.296875 C 18.59375 -29.253906 16.703125 -28.144531 15.265625 -25.96875 C 13.828125 -23.789062 13.109375 -20.421875 13.109375 -15.859375 L 13.109375 0 L 4.109375 0 L 4.109375 -48.28125 L 13.109375 -48.28125 L 13.109375 -29.09375 L 15.796875 -33.21875 C 18.054688 -34.820312 20.835938 -35.625 24.140625 -35.625 C 27.796875 -35.625 30.675781 -34.773438 32.78125 -33.078125 C 34.894531 -31.378906 36.125 -28.988281 36.46875 -25.90625 Z M 36.46875 -25.90625 "/></g></g></g><g fill="#ffffff" fill-opacity="1"><g transform="translate(355.576093, 234.784703)"><g><path d="M 20.75 -45.9375 C 25.882812 -45.9375 29.8125 -44.648438 32.53125 -42.078125 C 35.25 -39.515625 36.867188 -36.082031 37.390625 -31.78125 L 28.1875 -31.78125 C 27.925781 -34.125 27.140625 -35.945312 25.828125 -37.25 C 24.523438 -38.5625 22.722656 -39.21875 20.421875 -39.21875 C 18.554688 -39.21875 17.035156 -38.757812 15.859375 -37.84375 C 14.679688 -36.925781 14.09375 -35.597656 14.09375 -33.859375 C 14.09375 -31.953125 14.796875 -30.453125 16.203125 -29.359375 C 17.617188 -28.273438 20.113281 -27.316406 23.6875 -26.484375 C 28.601562 -25.359375 32.222656 -23.640625 34.546875 -21.328125 C 36.878906 -19.023438 38.046875 -16.046875 38.046875 -12.390625 C 38.046875 -8.304688 36.4375 -5.066406 33.21875 -2.671875 C 30 -0.285156 26.0625 0.90625 21.40625 0.90625 C 15.925781 0.90625 11.550781 -0.296875 8.28125 -2.703125 C 5.019531 -5.117188 3.171875 -8.65625 2.734375 -13.3125 L 11.9375 -13.3125 C 12.414062 -10.914062 13.503906 -9.066406 15.203125 -7.765625 C 16.898438 -6.460938 18.921875 -5.8125 21.265625 -5.8125 C 23.359375 -5.8125 25.109375 -6.332031 26.515625 -7.375 C 27.929688 -8.414062 28.640625 -9.785156 28.640625 -11.484375 C 28.640625 -13.398438 27.953125 -14.941406 26.578125 -16.109375 C 25.210938 -17.285156 22.898438 -18.265625 19.640625 -19.046875 C 14.597656 -20.265625 10.832031 -21.882812 8.34375 -23.90625 C 5.863281 -25.9375 4.625 -28.882812 4.625 -32.75 C 4.625 -36.757812 6.191406 -39.957031 9.328125 -42.34375 C 12.460938 -44.738281 16.269531 -45.9375 20.75 -45.9375 Z M 20.75 -45.9375 "/></g></g></g><g fill="#ffffff" fill-opacity="1"><g transform="translate(395.248039, 234.784703)"><g><path d="M 35.625 -18.078125 C 35.625 -16.816406 35.582031 -15.789062 35.5 -15 L 10.828125 -15 C 11.347656 -8.613281 14.023438 -5.421875 18.859375 -5.421875 C 20.816406 -5.421875 22.4375 -5.941406 23.71875 -6.984375 C 25 -8.023438 25.789062 -9.457031 26.09375 -11.28125 L 35.109375 -11.28125 C 34.234375 -7.320312 32.328125 -4.300781 29.390625 -2.21875 C 26.453125 -0.132812 22.875 0.90625 18.65625 0.90625 C 13.65625 0.90625 9.585938 -0.644531 6.453125 -3.75 C 3.328125 -6.863281 1.765625 -11.351562 1.765625 -17.21875 C 1.765625 -22.613281 3.382812 -27.03125 6.625 -30.46875 C 9.863281 -33.90625 14.113281 -35.625 19.375 -35.625 C 24.46875 -35.625 28.445312 -33.945312 31.3125 -30.59375 C 34.1875 -27.25 35.625 -23.078125 35.625 -18.078125 Z M 18.984375 -29.296875 C 14.503906 -29.296875 11.875 -26.488281 11.09375 -20.875 L 26.359375 -20.875 C 25.753906 -26.488281 23.296875 -29.296875 18.984375 -29.296875 Z M 18.984375 -29.296875 "/></g></g></g><g fill="#ffffff" fill-opacity="1"><g transform="translate(432.962486, 234.784703)"><g><path d="M 15.984375 -13.703125 L 13.109375 -10.578125 L 13.109375 0 L 4.109375 0 L 4.109375 -47.953125 L 13.109375 -47.953125 L 13.109375 -18.859375 L 27.078125 -34.71875 L 37.90625 -34.71875 L 22.515625 -18.59375 L 38.109375 0 L 26.75 0 Z M 15.984375 -13.703125 "/></g></g></g><g fill="#ffffff" fill-opacity="1"><g transform="translate(471.00318, 234.784703)"><g><path d="M 24.265625 0 L 23.625 -5.09375 L 21.921875 -1.375 C 19.660156 0.144531 16.789062 0.90625 13.3125 0.90625 C 10.132812 0.90625 7.476562 0.015625 5.34375 -1.765625 C 3.21875 -3.546875 2.15625 -6.023438 2.15625 -9.203125 C 2.15625 -13.023438 3.773438 -15.96875 7.015625 -18.03125 C 10.253906 -20.101562 15.003906 -21.140625 21.265625 -21.140625 L 23.484375 -21.140625 L 23.484375 -21.859375 C 23.484375 -23.253906 23.441406 -24.34375 23.359375 -25.125 C 23.054688 -27.90625 21.273438 -29.296875 18.015625 -29.296875 C 14.398438 -29.296875 12.460938 -27.335938 12.203125 -23.421875 L 3.453125 -23.359375 C 3.585938 -27.179688 5.035156 -30.179688 7.796875 -32.359375 C 10.554688 -34.535156 14.066406 -35.625 18.328125 -35.625 C 26.984375 -35.625 31.617188 -32.207031 32.234375 -25.375 C 32.359375 -23.726562 32.421875 -21.945312 32.421875 -20.03125 L 32.421875 -8.8125 C 32.421875 -6.15625 32.640625 -3.21875 33.078125 0 Z M 16.765625 -5.421875 C 18.679688 -5.421875 20.28125 -6.070312 21.5625 -7.375 C 22.84375 -8.675781 23.484375 -10.476562 23.484375 -12.78125 L 23.484375 -15.59375 C 15.484375 -16.15625 11.484375 -14.265625 11.484375 -9.921875 C 11.484375 -6.921875 13.242188 -5.421875 16.765625 -5.421875 Z M 16.765625 -5.421875 "/></g></g></g><g fill="#ffffff" fill-opacity="1"><g transform="translate(507.673628, 234.784703)"><g><path d="M 21.796875 -35.5625 C 22.796875 -35.5625 23.644531 -35.472656 24.34375 -35.296875 L 24.34375 -28.0625 C 20.507812 -28.320312 17.675781 -27.503906 15.84375 -25.609375 C 14.019531 -23.710938 13.109375 -20.484375 13.109375 -15.921875 L 13.109375 0 L 4.109375 0 L 4.109375 -34.71875 L 13.109375 -34.71875 L 13.109375 -28.390625 L 15.859375 -33.21875 C 17.554688 -34.78125 19.535156 -35.5625 21.796875 -35.5625 Z M 21.796875 -35.5625 "/></g></g></g><g fill="#ffffff" fill-opacity="1"><g transform="translate(532.4686, 234.784703)"><g><path d="M 24.265625 0 L 23.625 -5.09375 L 21.921875 -1.375 C 19.660156 0.144531 16.789062 0.90625 13.3125 0.90625 C 10.132812 0.90625 7.476562 0.015625 5.34375 -1.765625 C 3.21875 -3.546875 2.15625 -6.023438 2.15625 -9.203125 C 2.15625 -13.023438 3.773438 -15.96875 7.015625 -18.03125 C 10.253906 -20.101562 15.003906 -21.140625 21.265625 -21.140625 L 23.484375 -21.140625 L 23.484375 -21.859375 C 23.484375 -23.253906 23.441406 -24.34375 23.359375 -25.125 C 23.054688 -27.90625 21.273438 -29.296875 18.015625 -29.296875 C 14.398438 -29.296875 12.460938 -27.335938 12.203125 -23.421875 L 3.453125 -23.359375 C 3.585938 -27.179688 5.035156 -30.179688 7.796875 -32.359375 C 10.554688 -34.535156 14.066406 -35.625 18.328125 -35.625 C 26.984375 -35.625 31.617188 -32.207031 32.234375 -25.375 C 32.359375 -23.726562 32.421875 -21.945312 32.421875 -20.03125 L 32.421875 -8.8125 C 32.421875 -6.15625 32.640625 -3.21875 33.078125 0 Z M 16.765625 -5.421875 C 18.679688 -5.421875 20.28125 -6.070312 21.5625 -7.375 C 22.84375 -8.675781 23.484375 -10.476562 23.484375 -12.78125 L 23.484375 -15.59375 C 15.484375 -16.15625 11.484375 -14.265625 11.484375 -9.921875 C 11.484375 -6.921875 13.242188 -5.421875 16.765625 -5.421875 Z M 16.765625 -5.421875 "/></g></g></g><g fill="#ffffff" fill-opacity="1"><g transform="translate(569.139048, 234.784703)"><g><path d="M 36.46875 -25.90625 C 36.644531 -24.34375 36.734375 -22.234375 36.734375 -19.578125 L 36.734375 0 L 27.734375 0 L 27.734375 -18.328125 C 27.734375 -20.378906 27.6875 -21.988281 27.59375 -23.15625 C 27.289062 -27.25 25.070312 -29.296875 20.9375 -29.296875 C 18.59375 -29.296875 16.703125 -28.195312 15.265625 -26 C 13.828125 -23.800781 13.109375 -20.421875 13.109375 -15.859375 L 13.109375 0 L 4.109375 0 L 4.109375 -34.71875 L 13.109375 -34.71875 L 13.109375 -29.09375 L 15.796875 -33.21875 C 18.054688 -34.820312 20.835938 -35.625 24.140625 -35.625 C 27.796875 -35.625 30.675781 -34.773438 32.78125 -33.078125 C 34.894531 -31.378906 36.125 -28.988281 36.46875 -25.90625 Z M 36.46875 -25.90625 "/></g></g></g><g fill="#ffffff" fill-opacity="1"><g transform="translate(609.659253, 234.784703)"><g><path d="M 37.84375 -34.71875 L 37.84375 -8.671875 C 37.84375 -5.453125 37.820312 -3.210938 37.78125 -1.953125 C 37.601562 3.347656 35.894531 7.347656 32.65625 10.046875 C 29.414062 12.742188 24.988281 14.09375 19.375 14.09375 C 14.332031 14.09375 10.394531 13.066406 7.5625 11.015625 C 4.738281 8.972656 3.128906 6.039062 2.734375 2.21875 L 2.671875 1.5625 L 11.421875 1.5625 L 11.484375 2.15625 C 11.703125 3.757812 12.515625 5.03125 13.921875 5.96875 C 15.335938 6.90625 17.203125 7.375 19.515625 7.375 C 22.335938 7.375 24.539062 6.664062 26.125 5.25 C 27.71875 3.832031 28.601562 1.753906 28.78125 -0.984375 C 28.820312 -1.847656 28.84375 -3.257812 28.84375 -5.21875 L 28.84375 -6.0625 L 26.234375 -2.21875 C 24.140625 -0.601562 21.269531 0.203125 17.625 0.203125 C 12.789062 0.203125 8.9375 -1.375 6.0625 -4.53125 C 3.195312 -7.6875 1.765625 -11.832031 1.765625 -16.96875 C 1.765625 -22.96875 3.347656 -27.578125 6.515625 -30.796875 C 9.691406 -34.015625 13.65625 -35.625 18.40625 -35.625 C 21.96875 -35.625 24.6875 -34.972656 26.5625 -33.671875 L 28.84375 -30.078125 L 28.84375 -34.71875 Z M 13.4375 -9.265625 C 15.007812 -7.179688 17.140625 -6.140625 19.828125 -6.140625 C 22.523438 -6.140625 24.703125 -7.0625 26.359375 -8.90625 C 28.015625 -10.757812 28.84375 -13.6875 28.84375 -17.6875 L 28.84375 -18.65625 C 28.84375 -22.269531 27.992188 -24.945312 26.296875 -26.6875 C 24.597656 -28.425781 22.550781 -29.296875 20.15625 -29.296875 C 17.414062 -29.296875 15.21875 -28.328125 13.5625 -26.390625 C 11.914062 -24.453125 11.09375 -21.570312 11.09375 -17.75 C 11.09375 -14.175781 11.875 -11.347656 13.4375 -9.265625 Z M 13.4375 -9.265625 "/></g></g></g><g fill="#ffffff" fill-opacity="1"><g transform="translate(651.745445, 234.784703)"><g><path d="M 12.203125 -12.859375 L 4.953125 -12.859375 L 4.171875 -45.015625 L 12.984375 -45.015625 Z M 8.546875 -9.265625 C 10.066406 -9.265625 11.304688 -8.785156 12.265625 -7.828125 C 13.222656 -6.867188 13.703125 -5.648438 13.703125 -4.171875 C 13.703125 -2.691406 13.222656 -1.472656 12.265625 -0.515625 C 11.304688 0.429688 10.066406 0.90625 8.546875 0.90625 C 7.066406 0.90625 5.847656 0.429688 4.890625 -0.515625 C 3.929688 -1.472656 3.453125 -2.691406 3.453125 -4.171875 C 3.453125 -5.648438 3.929688 -6.867188 4.890625 -7.828125 C 5.847656 -8.785156 7.066406 -9.265625 8.546875 -9.265625 Z M 8.546875 -9.265625 "/></g></g></g><g fill="#ffffff" fill-opacity="1"><g transform="translate(69.377496, 84.320034)"><g><path d="M 8.484375 -34.125 L 14.359375 -34.125 L 14.359375 9.78125 L 8.484375 9.78125 Z M 8.484375 -34.125 "/></g></g></g></svg>