<svg xmlns="http://www.w3.org/2000/svg" xmlns:xlink="http://www.w3.org/1999/xlink" width="500" zoomAndPan="magnify" viewBox="0 0 375 374.999991" height="500" preserveAspectRatio="xMidYMid meet" version="1.0"><defs><g/></defs><g fill="#ffde59" fill-opacity="1"><g transform="translate(94.646482, 283.790394)"><g><path d="M 15.03125 -35.15625 L 15.03125 -162.453125 C 15.03125 -164.710938 15.785156 -166.597656 17.296875 -168.109375 L 45.359375 -196.1875 C 46.867188 -197.695312 48.757812 -198.453125 51.03125 -198.453125 L 141.75 -198.453125 C 144.019531 -198.453125 145.910156 -197.695312 147.421875 -196.1875 L 174.921875 -168.6875 C 176.429688 -167.175781 177.1875 -165.285156 177.1875 -163.015625 L 177.1875 -143.734375 C 177.1875 -141.648438 176.382812 -139.804688 174.78125 -138.203125 C 173.175781 -136.597656 171.332031 -135.796875 169.25 -135.796875 L 146.28125 -135.796875 C 144.207031 -135.796875 142.363281 -136.597656 140.75 -138.203125 C 139.144531 -139.804688 138.34375 -141.648438 138.34375 -143.734375 L 138.34375 -148.84375 C 138.34375 -151.101562 137.585938 -152.988281 136.078125 -154.5 L 127.578125 -163.015625 C 125.878906 -164.710938 123.988281 -165.5625 121.90625 -165.5625 L 71.4375 -165.5625 C 69.363281 -165.5625 67.472656 -164.710938 65.765625 -163.015625 L 56.140625 -153.375 C 54.429688 -151.675781 53.578125 -149.785156 53.578125 -147.703125 L 53.578125 -50.171875 C 53.578125 -47.910156 54.429688 -46.023438 56.140625 -44.515625 L 65.765625 -34.59375 C 67.660156 -33.070312 69.550781 -32.3125 71.4375 -32.3125 L 121.90625 -32.3125 C 123.789062 -32.3125 125.679688 -33.070312 127.578125 -34.59375 L 136.078125 -43.375 C 137.585938 -44.695312 138.34375 -46.585938 138.34375 -49.046875 L 138.34375 -53.859375 C 138.34375 -56.128906 139.144531 -58.019531 140.75 -59.53125 C 142.363281 -61.039062 144.207031 -61.796875 146.28125 -61.796875 L 169.25 -61.796875 C 171.332031 -61.796875 173.175781 -61.039062 174.78125 -59.53125 C 176.382812 -58.019531 177.1875 -56.128906 177.1875 -53.859375 L 177.1875 -34.59375 C 177.1875 -32.507812 176.429688 -30.710938 174.921875 -29.203125 L 147.421875 -1.703125 C 146.097656 -0.00390625 144.207031 0.84375 141.75 0.84375 L 51.03125 0.84375 C 48.757812 0.84375 46.867188 -0.00390625 45.359375 -1.703125 L 17.296875 -29.765625 C 15.785156 -31.273438 15.03125 -33.070312 15.03125 -35.15625 Z M 15.03125 -35.15625 "/></g></g></g><g fill="#000000" fill-opacity="1"><g transform="translate(87.25064, 274.721263)"><g><path d="M 14.546875 -34.03125 L 14.546875 -157.28125 C 14.546875 -159.476562 15.28125 -161.304688 16.75 -162.765625 L 43.921875 -189.9375 C 45.378906 -191.40625 47.207031 -192.140625 49.40625 -192.140625 L 137.25 -192.140625 C 139.4375 -192.140625 141.265625 -191.40625 142.734375 -189.9375 L 169.359375 -163.3125 C 170.816406 -161.851562 171.546875 -160.023438 171.546875 -157.828125 L 171.546875 -139.15625 C 171.546875 -137.144531 170.769531 -135.363281 169.21875 -133.8125 C 167.664062 -132.257812 165.878906 -131.484375 163.859375 -131.484375 L 141.640625 -131.484375 C 139.617188 -131.484375 137.832031 -132.257812 136.28125 -133.8125 C 134.726562 -135.363281 133.953125 -137.144531 133.953125 -139.15625 L 133.953125 -144.109375 C 133.953125 -146.296875 133.21875 -148.125 131.75 -149.59375 L 123.515625 -157.828125 C 121.867188 -159.472656 120.039062 -160.296875 118.03125 -160.296875 L 69.171875 -160.296875 C 67.160156 -160.296875 65.332031 -159.472656 63.6875 -157.828125 L 54.34375 -148.5 C 52.695312 -146.851562 51.875 -145.019531 51.875 -143 L 51.875 -48.578125 C 51.875 -46.390625 52.695312 -44.5625 54.34375 -43.09375 L 63.6875 -33.484375 C 65.507812 -32.023438 67.335938 -31.296875 69.171875 -31.296875 L 118.03125 -31.296875 C 119.851562 -31.296875 121.679688 -32.023438 123.515625 -33.484375 L 131.75 -42 C 133.21875 -43.28125 133.953125 -45.109375 133.953125 -47.484375 L 133.953125 -52.15625 C 133.953125 -54.351562 134.726562 -56.179688 136.28125 -57.640625 C 137.832031 -59.109375 139.617188 -59.84375 141.640625 -59.84375 L 163.859375 -59.84375 C 165.878906 -59.84375 167.664062 -59.109375 169.21875 -57.640625 C 170.769531 -56.179688 171.546875 -54.351562 171.546875 -52.15625 L 171.546875 -33.484375 C 171.546875 -31.472656 170.816406 -29.734375 169.359375 -28.265625 L 142.734375 -1.640625 C 141.453125 0.00390625 139.625 0.828125 137.25 0.828125 L 49.40625 0.828125 C 47.207031 0.828125 45.378906 0.00390625 43.921875 -1.640625 L 16.75 -28.828125 C 15.28125 -30.285156 14.546875 -32.019531 14.546875 -34.03125 Z M 14.546875 -34.03125 "/></g></g></g><g fill="#ffffff" fill-opacity="1"><g transform="translate(87.25064, 249.586507)"><g><path d="M 14.296875 -33.453125 L 14.296875 -154.59375 C 14.296875 -156.75 15.015625 -158.546875 16.453125 -159.984375 L 43.171875 -186.703125 C 44.609375 -188.140625 46.40625 -188.859375 48.5625 -188.859375 L 134.890625 -188.859375 C 137.054688 -188.859375 138.859375 -188.140625 140.296875 -186.703125 L 166.46875 -160.53125 C 167.90625 -159.09375 168.625 -157.296875 168.625 -155.140625 L 168.625 -136.78125 C 168.625 -134.800781 167.859375 -133.046875 166.328125 -131.515625 C 164.796875 -129.992188 163.039062 -129.234375 161.0625 -129.234375 L 139.21875 -129.234375 C 137.238281 -129.234375 135.484375 -129.992188 133.953125 -131.515625 C 132.421875 -133.046875 131.65625 -134.800781 131.65625 -136.78125 L 131.65625 -141.640625 C 131.65625 -143.796875 130.9375 -145.597656 129.5 -147.046875 L 121.40625 -155.140625 C 119.789062 -156.753906 117.992188 -157.5625 116.015625 -157.5625 L 67.984375 -157.5625 C 66.003906 -157.5625 64.207031 -156.753906 62.59375 -155.140625 L 53.421875 -145.953125 C 51.796875 -144.335938 50.984375 -142.539062 50.984375 -140.5625 L 50.984375 -47.75 C 50.984375 -45.59375 51.796875 -43.796875 53.421875 -42.359375 L 62.59375 -32.921875 C 64.394531 -31.472656 66.191406 -30.75 67.984375 -30.75 L 116.015625 -30.75 C 117.804688 -30.75 119.601562 -31.472656 121.40625 -32.921875 L 129.5 -41.28125 C 130.9375 -42.539062 131.65625 -44.335938 131.65625 -46.671875 L 131.65625 -51.265625 C 131.65625 -53.421875 132.421875 -55.21875 133.953125 -56.65625 C 135.484375 -58.09375 137.238281 -58.8125 139.21875 -58.8125 L 161.0625 -58.8125 C 163.039062 -58.8125 164.796875 -58.09375 166.328125 -56.65625 C 167.859375 -55.21875 168.625 -53.421875 168.625 -51.265625 L 168.625 -32.921875 C 168.625 -30.941406 167.90625 -29.234375 166.46875 -27.796875 L 140.296875 -1.625 C 139.035156 0 137.234375 0.8125 134.890625 0.8125 L 48.5625 0.8125 C 46.40625 0.8125 44.609375 0 43.171875 -1.625 L 16.453125 -28.328125 C 15.015625 -29.765625 14.296875 -31.472656 14.296875 -33.453125 Z M 14.296875 -33.453125 "/></g></g></g></svg>